<?xml version="1.0" encoding="UTF-8" standalone="no"?>
<!DOCTYPE svg PUBLIC "-//W3C//DTD SVG 20010904//EN"
              "http://www.w3.org/TR/2001/REC-SVG-20010904/DTD/svg10.dtd">

<svg xmlns="http://www.w3.org/2000/svg"
     width="19.4444in" height="13.8889in"
     viewBox="0 0 1400 1000">
  <path id="heel_logo"
        fill="none" stroke="black" stroke-width="1"
        d="M 62.99,339.00
           C 62.79,347.84 58.64,366.22 50.96,371.26
             48.84,372.65 47.39,372.72 45.00,373.00
             45.00,373.00 50.00,352.00 50.00,352.00
             50.00,352.00 54.00,354.00 54.00,354.00
             54.00,354.00 62.00,331.00 62.00,331.00
             63.13,333.86 63.05,335.95 62.99,339.00 Z
           M 43.37,384.11
           C 44.35,386.97 42.50,394.20 40.30,396.26
             38.91,397.56 37.71,397.61 36.00,398.00
             36.00,398.00 41.00,381.00 41.00,381.00
             42.11,382.13 42.79,382.43 43.37,384.11 Z" />
</svg>
