<?xml version="1.0" encoding="UTF-8" standalone="no"?>
<!DOCTYPE svg PUBLIC "-//W3C//DTD SVG 20010904//EN"
              "http://www.w3.org/TR/2001/REC-SVG-20010904/DTD/svg10.dtd">

<svg xmlns="http://www.w3.org/2000/svg"
     width="19.4444in" height="13.8889in"
     viewBox="0 0 1400 1000">
  <path id="heel"
        fill="none" stroke="black" stroke-width="1"
        d="M 54.87,338.00
           C 56.39,330.01 58.76,327.57 61.10,320.99
             61.10,320.99 63.36,313.00 63.36,313.00
             63.36,313.00 66.91,304.00 66.91,304.00
             69.56,296.54 70.42,289.05 74.97,282.00
             77.24,278.48 87.10,269.37 91.00,268.40
             92.92,267.92 94.35,268.60 96.00,269.50
             114.71,279.68 123.41,310.03 131.00,329.00
             132.72,333.30 134.81,339.13 137.09,343.00
             140.31,348.47 155.09,370.05 159.04,373.91
             167.14,381.85 184.19,394.89 190.00,403.00
             190.00,403.00 156.00,419.04 156.00,419.04
             153.33,419.98 140.18,421.73 137.00,421.91
             137.00,421.91 124.00,421.00 124.00,421.00
             124.00,421.00 108.00,421.00 108.00,421.00
             98.53,421.01 80.45,424.10 72.00,428.04
             72.00,428.04 61.00,434.69 61.00,434.69
             45.31,444.78 47.68,443.89 34.00,455.95
             30.76,458.81 26.42,463.86 23.00,459.00
             18.96,457.92 20.10,454.36 20.90,451.00
             20.90,451.00 27.42,426.00 27.42,426.00
             27.42,426.00 35.80,400.27 35.80,400.27
             37.85,396.63 40.16,397.65 42.24,391.98
             45.47,383.13 40.59,381.71 43.57,376.14
             45.78,372.03 48.94,373.58 53.39,367.96
             60.13,359.46 65.00,341.57 62.00,331.00
             62.00,331.00 54.00,354.00 54.00,354.00
             54.00,354.00 52.00,354.00 52.00,354.00
             50.60,347.89 53.69,344.21 54.87,338.00 Z" />
</svg>
