<?xml version="1.0" encoding="UTF-8" standalone="no"?>
<!DOCTYPE svg PUBLIC "-//W3C//DTD SVG 20010904//EN"
              "http://www.w3.org/TR/2001/REC-SVG-20010904/DTD/svg10.dtd">

<svg xmlns="http://www.w3.org/2000/svg"
     width="19.4444in" height="13.8889in"
     viewBox="0 0 1400 1000">
  <path id="toe"
        fill="none" stroke="black" stroke-width="1"
        d="M 947.00,538.42
           C 968.47,546.59 980.05,552.28 1004.00,552.00
             1019.28,551.82 1035.53,542.19 1040.00,527.00
             1040.00,527.00 1113.00,544.10 1113.00,544.10
             1113.00,544.10 1234.00,575.26 1234.00,575.26
             1234.00,575.26 1262.00,583.25 1262.00,583.25
             1262.00,583.25 1269.00,584.78 1269.00,584.78
             1269.00,584.78 1283.00,589.06 1283.00,589.06
             1283.00,589.06 1301.00,590.00 1301.00,590.00
             1301.00,590.00 1277.00,598.49 1277.00,598.49
             1277.00,598.49 1246.00,602.16 1246.00,602.16
             1246.00,602.16 1202.00,607.16 1202.00,607.16
             1202.00,607.16 1144.00,613.96 1144.00,613.96
             1144.00,613.96 1134.00,613.96 1134.00,613.96
             1134.00,613.96 1126.00,614.98 1126.00,614.98
             1126.00,614.98 1107.00,614.98 1107.00,614.98
             1107.00,614.98 1091.00,616.00 1091.00,616.00
             1091.00,616.00 1075.00,616.00 1075.00,616.00
             1075.00,616.00 1059.00,617.11 1059.00,617.11
             1059.00,617.11 1034.00,617.11 1034.00,617.11
             1034.00,617.11 1024.00,617.11 1024.00,617.11
             1024.00,617.11 1006.00,617.11 1006.00,617.11
             1006.00,617.11 990.00,616.00 990.00,616.00
             968.30,615.97 961.82,616.23 940.00,612.00
             940.00,612.00 928.00,609.58 928.00,609.58
             924.81,608.45 912.70,600.98 910.39,598.62
             908.27,596.46 902.17,585.91 901.58,583.00
             901.16,580.89 902.23,572.56 902.58,570.00
             902.58,570.00 904.84,550.00 904.84,550.00
             904.84,550.00 908.00,523.00 908.00,523.00
             908.00,523.00 947.00,538.42 947.00,538.42 Z" />
</svg>
