<?xml version="1.0" encoding="UTF-8" standalone="no"?>
<!DOCTYPE svg PUBLIC "-//W3C//DTD SVG 20010904//EN"
              "http://www.w3.org/TR/2001/REC-SVG-20010904/DTD/svg10.dtd">

<svg xmlns="http://www.w3.org/2000/svg"
     width="19.4444in" height="13.8889in"
     viewBox="0 0 1400 1000">
  <path id="tongue"
        fill="none" stroke="black" stroke-width="1"
        d="M 447.04,263.00
           C 446.23,242.76 455.13,231.88 467.00,216.96
             476.86,204.56 484.35,195.64 496.08,184.70
             496.08,184.70 509.32,170.37 509.32,170.37
             509.32,170.37 515.91,165.19 515.91,165.19
             518.02,163.43 521.14,159.81 523.98,159.74
             526.57,159.68 529.07,162.62 531.09,164.11
             531.09,164.11 549.00,175.67 549.00,175.67
             549.00,175.67 561.00,184.11 561.00,184.11
             561.00,184.11 567.55,188.14 567.55,188.14
             567.55,188.14 593.00,208.92 593.00,208.92
             601.71,216.12 614.61,226.87 621.00,236.00
             621.00,236.00 594.00,249.52 594.00,249.52
             590.63,251.45 585.73,256.08 582.00,255.95
             579.68,255.87 572.73,252.14 570.00,251.01
             562.90,248.07 548.42,243.09 541.00,243.00
             541.00,243.00 537.00,243.00 537.00,243.00
             518.99,243.22 492.14,261.77 478.00,272.37
             471.62,277.16 460.24,287.21 453.00,289.00
             450.68,280.18 447.41,272.37 447.04,263.00 Z
           M 728.00,314.33
           C 744.58,315.78 754.61,329.75 763.67,341.83
             763.67,341.83 770.00,350.00 770.00,350.00
             767.00,351.50 763.90,353.85 761.18,350.67
             761.18,350.67 758.29,346.00 758.29,346.00
             753.43,338.27 752.19,336.34 745.00,330.60
             742.84,328.88 740.46,326.92 738.00,325.68
             728.85,321.11 719.47,325.94 712.00,318.00
             717.70,316.66 721.78,313.78 728.00,314.33 Z" />
</svg>
